<mxfile host="app.diagrams.net" modified="2023-10-16T10:56:17.828Z" agent="Mozilla/5.0 (Windows NT 10.0; Win64; x64) AppleWebKit/537.36 (KHTML, like Gecko) Chrome/117.0.0.0 Safari/537.36" etag="lGwO7pyWuEfdC56BLDyo" version="22.0.4" type="device">
  <diagram name="Страница — 1" id="CmP0Q8ZxnIExOq6AZTXh">
    <mxGraphModel dx="1050" dy="542" grid="1" gridSize="10" guides="1" tooltips="1" connect="1" arrows="1" fold="1" page="1" pageScale="1" pageWidth="827" pageHeight="1169" math="0" shadow="0">
      <root>
        <mxCell id="0" />
        <mxCell id="1" parent="0" />
        <mxCell id="flJavcABsC7ssx3VljiU-1" value="Audio" style="swimlane;whiteSpace=wrap;html=1;fillColor=#fff2cc;strokeColor=#d6b656;" parent="1" vertex="1">
          <mxGeometry x="40" y="210" width="90" height="40" as="geometry" />
        </mxCell>
        <mxCell id="flJavcABsC7ssx3VljiU-2" value="UI" style="swimlane;whiteSpace=wrap;html=1;fillColor=#fff2cc;strokeColor=#d6b656;" parent="1" vertex="1">
          <mxGeometry x="40" y="270" width="90" height="40" as="geometry" />
        </mxCell>
        <mxCell id="flJavcABsC7ssx3VljiU-3" value="Main Menu" style="swimlane;whiteSpace=wrap;html=1;fillColor=#fff2cc;strokeColor=#d6b656;" parent="1" vertex="1">
          <mxGeometry x="50" y="36.25" width="90" height="40" as="geometry" />
        </mxCell>
        <mxCell id="flJavcABsC7ssx3VljiU-4" value="Save System" style="swimlane;whiteSpace=wrap;html=1;fillColor=#fff2cc;strokeColor=#d6b656;" parent="1" vertex="1">
          <mxGeometry x="40" y="135" width="110" height="40" as="geometry" />
        </mxCell>
        <mxCell id="flJavcABsC7ssx3VljiU-5" value="" style="endArrow=classic;html=1;rounded=0;exitX=0.5;exitY=1;exitDx=0;exitDy=0;entryX=0.5;entryY=0;entryDx=0;entryDy=0;" parent="1" source="flJavcABsC7ssx3VljiU-3" target="flJavcABsC7ssx3VljiU-4" edge="1">
          <mxGeometry width="50" height="50" relative="1" as="geometry">
            <mxPoint x="360" y="280" as="sourcePoint" />
            <mxPoint x="410" y="230" as="targetPoint" />
          </mxGeometry>
        </mxCell>
        <mxCell id="flJavcABsC7ssx3VljiU-6" value="Advert" style="swimlane;whiteSpace=wrap;html=1;fillColor=#fff2cc;strokeColor=#d6b656;" parent="1" vertex="1">
          <mxGeometry x="40" y="330" width="80" height="40" as="geometry" />
        </mxCell>
        <mxCell id="flJavcABsC7ssx3VljiU-7" value="class LevelDirector" style="swimlane;whiteSpace=wrap;html=1;fillColor=#d5e8d4;strokeColor=#82b366;" parent="1" vertex="1">
          <mxGeometry x="180" y="120" width="170" height="70" as="geometry" />
        </mxCell>
        <mxCell id="flJavcABsC7ssx3VljiU-8" value="&lt;div style=&quot;font-size: 11px;&quot;&gt;&lt;br&gt;&lt;/div&gt;" style="text;html=1;align=left;verticalAlign=middle;resizable=0;points=[];autosize=1;strokeColor=none;fillColor=none;" parent="flJavcABsC7ssx3VljiU-7" vertex="1">
          <mxGeometry x="90" y="40" width="20" height="30" as="geometry" />
        </mxCell>
        <mxCell id="D9Bz69EdUjo1iAx9_gIO-1" value="&lt;font style=&quot;font-size: 10px;&quot;&gt;public void FinishLevel()&lt;br&gt;event Action OnLevelFinished()&lt;/font&gt;" style="text;html=1;align=left;verticalAlign=middle;resizable=0;points=[];autosize=1;strokeColor=none;fillColor=none;" vertex="1" parent="flJavcABsC7ssx3VljiU-7">
          <mxGeometry x="5" y="30" width="160" height="40" as="geometry" />
        </mxCell>
        <mxCell id="flJavcABsC7ssx3VljiU-9" value="" style="endArrow=classic;html=1;rounded=0;entryX=1;entryY=0.5;entryDx=0;entryDy=0;exitX=0;exitY=0.5;exitDx=0;exitDy=0;" parent="1" source="flJavcABsC7ssx3VljiU-7" target="flJavcABsC7ssx3VljiU-4" edge="1">
          <mxGeometry width="50" height="50" relative="1" as="geometry">
            <mxPoint x="220" y="260" as="sourcePoint" />
            <mxPoint x="420" y="220" as="targetPoint" />
          </mxGeometry>
        </mxCell>
        <mxCell id="flJavcABsC7ssx3VljiU-10" value="Game Over" style="swimlane;whiteSpace=wrap;html=1;fillColor=#d5e8d4;strokeColor=#82b366;" parent="1" vertex="1">
          <mxGeometry x="150" y="330" width="90" height="40" as="geometry" />
        </mxCell>
        <mxCell id="flJavcABsC7ssx3VljiU-11" value="" style="endArrow=classic;html=1;rounded=0;exitX=0;exitY=0.5;exitDx=0;exitDy=0;" parent="1" source="flJavcABsC7ssx3VljiU-10" target="flJavcABsC7ssx3VljiU-6" edge="1">
          <mxGeometry width="50" height="50" relative="1" as="geometry">
            <mxPoint x="390" y="430" as="sourcePoint" />
            <mxPoint x="440" y="380" as="targetPoint" />
          </mxGeometry>
        </mxCell>
        <mxCell id="flJavcABsC7ssx3VljiU-12" value="class Player" style="swimlane;whiteSpace=wrap;html=1;fillColor=#d5e8d4;strokeColor=#82b366;" parent="1" vertex="1">
          <mxGeometry x="600" y="140" width="180" height="90" as="geometry" />
        </mxCell>
        <mxCell id="D9Bz69EdUjo1iAx9_gIO-6" value="&lt;font style=&quot;font-size: 11px;&quot;&gt;event Action OnPlayerDeath()&lt;br&gt;public void GetInput()&lt;/font&gt;" style="text;html=1;align=left;verticalAlign=middle;resizable=0;points=[];autosize=1;strokeColor=none;fillColor=none;" vertex="1" parent="flJavcABsC7ssx3VljiU-12">
          <mxGeometry x="5" y="30" width="170" height="40" as="geometry" />
        </mxCell>
        <mxCell id="flJavcABsC7ssx3VljiU-13" value="interface IInputHandler" style="swimlane;whiteSpace=wrap;html=1;fillColor=#d5e8d4;strokeColor=#82b366;" parent="1" vertex="1">
          <mxGeometry x="597" y="270" width="186" height="50" as="geometry" />
        </mxCell>
        <mxCell id="flJavcABsC7ssx3VljiU-14" value="" style="endArrow=classic;html=1;rounded=0;exitX=0.5;exitY=0;exitDx=0;exitDy=0;entryX=0.5;entryY=1;entryDx=0;entryDy=0;" parent="1" source="flJavcABsC7ssx3VljiU-13" target="flJavcABsC7ssx3VljiU-12" edge="1">
          <mxGeometry width="50" height="50" relative="1" as="geometry">
            <mxPoint x="410" y="50" as="sourcePoint" />
            <mxPoint x="710" y="260" as="targetPoint" />
          </mxGeometry>
        </mxCell>
        <mxCell id="flJavcABsC7ssx3VljiU-16" value="interface IPlatform" style="swimlane;whiteSpace=wrap;html=1;fillColor=#d5e8d4;strokeColor=#82b366;" parent="1" vertex="1">
          <mxGeometry x="620" y="45" width="140" height="42.5" as="geometry" />
        </mxCell>
        <mxCell id="flJavcABsC7ssx3VljiU-18" value="" style="endArrow=classic;html=1;rounded=0;exitX=0.5;exitY=0;exitDx=0;exitDy=0;entryX=0.5;entryY=1;entryDx=0;entryDy=0;" parent="1" source="flJavcABsC7ssx3VljiU-12" target="flJavcABsC7ssx3VljiU-16" edge="1">
          <mxGeometry width="50" height="50" relative="1" as="geometry">
            <mxPoint x="390" y="180" as="sourcePoint" />
            <mxPoint x="440" y="130" as="targetPoint" />
          </mxGeometry>
        </mxCell>
        <mxCell id="flJavcABsC7ssx3VljiU-19" value="abstract class EnemyBase" style="swimlane;whiteSpace=wrap;html=1;fillColor=#d5e8d4;strokeColor=#82b366;" parent="1" vertex="1">
          <mxGeometry x="390" y="160" width="180" height="50" as="geometry" />
        </mxCell>
        <mxCell id="flJavcABsC7ssx3VljiU-21" value="" style="endArrow=classic;html=1;rounded=0;exitX=1;exitY=0.5;exitDx=0;exitDy=0;entryX=0;entryY=0.5;entryDx=0;entryDy=0;" parent="1" source="flJavcABsC7ssx3VljiU-19" target="flJavcABsC7ssx3VljiU-12" edge="1">
          <mxGeometry width="50" height="50" relative="1" as="geometry">
            <mxPoint x="390" y="260" as="sourcePoint" />
            <mxPoint x="610" y="250" as="targetPoint" />
          </mxGeometry>
        </mxCell>
        <mxCell id="flJavcABsC7ssx3VljiU-22" value="Projectile pool" style="swimlane;whiteSpace=wrap;html=1;fillColor=#d5e8d4;strokeColor=#82b366;" parent="1" vertex="1">
          <mxGeometry x="450" y="320" width="135" height="80" as="geometry" />
        </mxCell>
        <mxCell id="flJavcABsC7ssx3VljiU-23" value="&lt;font style=&quot;font-size: 10px;&quot;&gt;Пул снарядов, которыми&lt;br&gt;стреляют враги&lt;/font&gt;" style="text;html=1;align=left;verticalAlign=middle;resizable=0;points=[];autosize=1;strokeColor=none;fillColor=none;" parent="flJavcABsC7ssx3VljiU-22" vertex="1">
          <mxGeometry x="6" y="27.5" width="140" height="40" as="geometry" />
        </mxCell>
        <mxCell id="flJavcABsC7ssx3VljiU-24" value="" style="endArrow=classic;html=1;rounded=0;entryX=0.5;entryY=0;entryDx=0;entryDy=0;exitX=0.75;exitY=1;exitDx=0;exitDy=0;" parent="1" edge="1" target="flJavcABsC7ssx3VljiU-22" source="flJavcABsC7ssx3VljiU-19">
          <mxGeometry width="50" height="50" relative="1" as="geometry">
            <mxPoint x="530" y="250" as="sourcePoint" />
            <mxPoint x="670" y="220" as="targetPoint" />
          </mxGeometry>
        </mxCell>
        <mxCell id="flJavcABsC7ssx3VljiU-25" value="Общие интерфейсы" style="swimlane;whiteSpace=wrap;html=1;fillColor=#d5e8d4;strokeColor=#82b366;" parent="1" vertex="1">
          <mxGeometry x="180" y="200" width="160" height="90" as="geometry" />
        </mxCell>
        <mxCell id="flJavcABsC7ssx3VljiU-26" value="&lt;div style=&quot;&quot;&gt;&lt;span style=&quot;background-color: initial;&quot;&gt;IDamagable&lt;/span&gt;&lt;/div&gt;IDamager&lt;br&gt;IGrabable" style="text;html=1;align=left;verticalAlign=middle;resizable=0;points=[];autosize=1;strokeColor=none;fillColor=none;" parent="flJavcABsC7ssx3VljiU-25" vertex="1">
          <mxGeometry x="7" y="30" width="90" height="60" as="geometry" />
        </mxCell>
        <mxCell id="flJavcABsC7ssx3VljiU-27" value="Triggers" style="swimlane;whiteSpace=wrap;html=1;fillColor=#fff2cc;strokeColor=#d6b656;" parent="1" vertex="1">
          <mxGeometry x="30" y="400" width="140" height="130" as="geometry" />
        </mxCell>
        <mxCell id="flJavcABsC7ssx3VljiU-28" value="&lt;font style=&quot;font-size: 10px;&quot;&gt;Триггеры/кнопки которые &lt;br&gt;активирует игрок&lt;br&gt;&amp;nbsp;(для открытия &lt;br&gt;дверей например)&lt;br&gt;Для дверей сделать &lt;br&gt;интерфейс Itriggerable&lt;br&gt;&lt;/font&gt;" style="text;html=1;align=left;verticalAlign=middle;resizable=0;points=[];autosize=1;strokeColor=none;fillColor=none;" parent="flJavcABsC7ssx3VljiU-27" vertex="1">
          <mxGeometry y="30" width="140" height="100" as="geometry" />
        </mxCell>
        <mxCell id="flJavcABsC7ssx3VljiU-30" value="Pause" style="swimlane;whiteSpace=wrap;html=1;startSize=20;fillColor=#d5e8d4;strokeColor=#82b366;" parent="1" vertex="1">
          <mxGeometry x="240" y="390" width="80" height="40" as="geometry" />
        </mxCell>
        <mxCell id="D9Bz69EdUjo1iAx9_gIO-2" value="&lt;div style=&quot;text-align: left;&quot;&gt;&lt;span style=&quot;background-color: initial;&quot;&gt;class Finish&lt;/span&gt;&lt;/div&gt;&lt;div style=&quot;text-align: left;&quot;&gt;&lt;span style=&quot;background-color: initial;&quot;&gt;class Timer&lt;/span&gt;&lt;/div&gt;&lt;div style=&quot;text-align: left;&quot;&gt;&lt;span style=&quot;background-color: initial;&quot;&gt;class EnemyCounter&lt;/span&gt;&lt;/div&gt;" style="rounded=0;whiteSpace=wrap;html=1;" vertex="1" parent="1">
          <mxGeometry x="205" y="36.25" width="120" height="60" as="geometry" />
        </mxCell>
        <mxCell id="D9Bz69EdUjo1iAx9_gIO-3" value="" style="endArrow=classic;html=1;rounded=0;exitX=0.5;exitY=1;exitDx=0;exitDy=0;entryX=0.5;entryY=0;entryDx=0;entryDy=0;" edge="1" parent="1" source="D9Bz69EdUjo1iAx9_gIO-2" target="flJavcABsC7ssx3VljiU-7">
          <mxGeometry width="50" height="50" relative="1" as="geometry">
            <mxPoint x="340" y="235" as="sourcePoint" />
            <mxPoint x="500" y="285" as="targetPoint" />
          </mxGeometry>
        </mxCell>
        <mxCell id="D9Bz69EdUjo1iAx9_gIO-4" value="&lt;font style=&quot;font-size: 10px;&quot;&gt;class StationaryPlatform : IPlatform&lt;br&gt;class MovingPlatform : IPlatform&lt;br&gt;class UnstablePlatform : IPlatform&lt;/font&gt;" style="rounded=0;whiteSpace=wrap;html=1;align=left;" vertex="1" parent="1">
          <mxGeometry x="395" y="20" width="145" height="92.5" as="geometry" />
        </mxCell>
        <mxCell id="D9Bz69EdUjo1iAx9_gIO-5" value="" style="endArrow=classic;html=1;rounded=0;exitX=1;exitY=0.5;exitDx=0;exitDy=0;entryX=0;entryY=0.5;entryDx=0;entryDy=0;" edge="1" parent="1" source="D9Bz69EdUjo1iAx9_gIO-4" target="flJavcABsC7ssx3VljiU-16">
          <mxGeometry width="50" height="50" relative="1" as="geometry">
            <mxPoint x="390" y="310" as="sourcePoint" />
            <mxPoint x="440" y="260" as="targetPoint" />
          </mxGeometry>
        </mxCell>
        <mxCell id="D9Bz69EdUjo1iAx9_gIO-10" value="&lt;font style=&quot;font-size: 11px;&quot;&gt;враги&lt;/font&gt;" style="rounded=0;whiteSpace=wrap;html=1;align=left;" vertex="1" parent="1">
          <mxGeometry x="413.5" y="235" width="40" height="35" as="geometry" />
        </mxCell>
        <mxCell id="D9Bz69EdUjo1iAx9_gIO-11" value="" style="endArrow=classic;html=1;rounded=0;exitX=0.5;exitY=0;exitDx=0;exitDy=0;entryX=0.25;entryY=1;entryDx=0;entryDy=0;" edge="1" parent="1" source="D9Bz69EdUjo1iAx9_gIO-10" target="flJavcABsC7ssx3VljiU-19">
          <mxGeometry width="50" height="50" relative="1" as="geometry">
            <mxPoint x="460" y="230" as="sourcePoint" />
            <mxPoint x="510" y="180" as="targetPoint" />
          </mxGeometry>
        </mxCell>
        <mxCell id="D9Bz69EdUjo1iAx9_gIO-12" value="class MouseInput :&amp;nbsp;IInputHandler&lt;br&gt;class TouchInput :&amp;nbsp;IInputHandler" style="rounded=0;whiteSpace=wrap;html=1;align=left;" vertex="1" parent="1">
          <mxGeometry x="630" y="350" width="120" height="80" as="geometry" />
        </mxCell>
        <mxCell id="D9Bz69EdUjo1iAx9_gIO-13" value="" style="endArrow=classic;html=1;rounded=0;exitX=0.5;exitY=0;exitDx=0;exitDy=0;entryX=0.5;entryY=1;entryDx=0;entryDy=0;" edge="1" parent="1" source="D9Bz69EdUjo1iAx9_gIO-12" target="flJavcABsC7ssx3VljiU-13">
          <mxGeometry width="50" height="50" relative="1" as="geometry">
            <mxPoint x="460" y="330" as="sourcePoint" />
            <mxPoint x="510" y="280" as="targetPoint" />
          </mxGeometry>
        </mxCell>
      </root>
    </mxGraphModel>
  </diagram>
</mxfile>
